<svg width="32" height="32" viewBox="0 0 32 32" fill="none" xmlns="http://www.w3.org/2000/svg">
  <rect width="32" height="32" rx="8" fill="url(#gradient)"/>
  <path d="M8 10C8 8.89543 8.89543 8 10 8H14C15.1046 8 16 8.89543 16 10V14C16 15.1046 15.1046 16 14 16H10C8.89543 16 8 15.1046 8 14V10Z" fill="white" opacity="0.9"/>
  <path d="M18 10C18 8.89543 18.8954 8 20 8H22C23.1046 8 24 8.89543 24 10V12C24 13.1046 23.1046 14 22 14H20C18.8954 14 18 13.1046 18 12V10Z" fill="white" opacity="0.7"/>
  <path d="M8 20C8 18.8954 8.89543 18 10 18H12C13.1046 18 14 18.8954 14 20V22C14 23.1046 13.1046 24 12 24H10C8.89543 24 8 23.1046 8 22V20Z" fill="white" opacity="0.5"/>
  <circle cx="21" cy="21" r="3" fill="white"/>
  <defs>
    <linearGradient id="gradient" x1="0" y1="0" x2="32" y2="32" gradientUnits="userSpaceOnUse">
      <stop stop-color="#667eea"/>
      <stop offset="1" stop-color="#764ba2"/>
    </linearGradient>
  </defs>
</svg> 